<svg id="svg" version="1.1" xmlns="http://www.w3.org/2000/svg" xmlns:xlink="http://www.w3.org/1999/xlink" width="400" height="365.63573883161513" viewBox="0, 0, 400,365.63573883161513"><g id="svgg"><path id="path0" d="M43.566 21.290 C 42.767 21.614,41.453 22.719,40.645 23.747 L 39.175 25.615 39.175 183.445 C 39.175 358.822,38.742 343.358,43.710 345.433 C 47.147 346.869,356.977 346.869,360.413 345.433 C 365.381 343.358,364.948 358.831,364.948 183.363 L 364.948 25.451 362.943 23.207 L 360.938 20.962 202.977 20.832 C 116.099 20.760,44.364 20.966,43.566 21.290 M350.859 183.505 L 350.859 331.615 202.062 331.615 L 53.265 331.615 53.087 184.192 C 52.989 103.110,53.057 36.382,53.238 35.909 C 53.500 35.223,83.657 35.084,202.213 35.222 L 350.859 35.395 350.859 183.505 M112.887 258.952 L 101.718 259.141 101.718 287.325 L 101.718 315.509 109.450 315.315 L 117.182 315.120 117.349 305.155 C 117.441 299.674,117.518 294.957,117.521 294.674 C 117.524 294.390,124.341 294.158,132.671 294.158 L 147.816 294.158 147.619 287.457 L 147.423 280.756 132.474 280.571 L 117.526 280.386 117.526 276.275 L 117.526 272.165 136.795 272.165 L 156.064 272.165 155.867 265.618 L 155.670 259.072 139.863 258.917 C 131.168 258.832,119.029 258.848,112.887 258.952 M74.914 287.285 L 74.914 315.464 82.474 315.464 L 90.034 315.464 90.034 287.285 L 90.034 259.107 82.474 259.107 L 74.914 259.107 74.914 287.285 " stroke="none" fill="#000000" fill-rule="evenodd"></path></g></svg>